<svg version="1" xmlns="http://www.w3.org/2000/svg" width="360" height="360" viewBox="0 0 270.000000 270.000000"><path d="M121 6.6c-39.4 3.8-68.9 22.6-79.5 50.7-8.3 22.3-6.6 44.1 5.4 69.2 15.2 31.7 49.4 69.7 75.6 84.1 9.5 5.3 14.5 5.3 24 0 26.2-14.4 60.4-52.4 75.6-84.1 12-25.1 13.7-46.9 5.4-69.2-9.5-25.1-33.2-42.4-66.8-48.8-8.3-1.6-31.4-2.7-39.7-1.9zM146.4 45c5.1 1.6 7.9 3.3 12.4 7.5 3.2 3 6.9 7.4 8.2 9.8 2.2 4.2 2.7 4.5 8.2 5.5 16.6 3.1 25.6 20.3 18.2 35-1.4 2.9-4.2 6.6-6.2 8.2-6.9 5.7-9.6 6-52.6 6-25.5 0-40.5-.4-43.1-1.1-16.9-4.7-23.8-24.5-13.5-38.6 3.4-4.6 10.9-8.8 17.6-9.9 3.4-.5 4.4-1.2 5.7-4 .9-1.8 3.3-5.2 5.3-7.4 10.7-11.8 24.6-15.7 39.8-11zM118.1 240.7c-.5 1-1.5 5.3-2.1 9.6l-1.3 7.9 2.7 2.6c2.5 2.6 3.1 2.7 15.6 3 19.7.5 22.3-1.4 20.1-14.5-2-11.4-.1-10.3-18.1-10.3-14.2 0-16 .2-16.9 1.7z"/></svg>